<svg width="22" height="23" viewBox="0 0 22 23" fill="none" xmlns="http://www.w3.org/2000/svg">
<path d="M20.7613 9.14491L20.7617 9.14486L20.7597 9.13617C20.1019 6.16506 18.1447 5.08306 16.5146 5.07939C16.1783 2.3054 13.7989 0.15 10.9254 0.15H10.9025C9.42364 0.15 7.97635 0.744528 6.92629 1.78263L6.92618 1.78274C6.03345 2.66814 5.46336 3.84207 5.30835 5.08046C3.69921 5.11944 1.68654 6.21717 1.13128 9.21013L1.13113 9.2101L1.13043 9.21553L0.283678 15.7576C-0.0652798 18.0712 0.273698 19.868 1.31882 21.0739C2.35964 22.2765 4.02353 22.85 6.37639 22.85H15.4869C17.6356 22.85 19.3565 22.1955 20.4483 20.9427L20.3729 20.877L20.4483 20.9427C21.5459 19.6829 21.9336 17.9339 21.6222 15.7753C21.6222 15.775 21.6222 15.7748 21.6221 15.7746L20.7613 9.14491ZM2.10228 16.0111L2.10254 16.0091L2.9447 9.49695C3.17172 8.28045 3.6765 7.63783 4.17104 7.29708C4.66863 6.95422 5.16874 6.90809 5.39745 6.90809H16.5063C17.6648 6.90809 18.5947 7.86041 18.9527 9.45424L19.8022 16.021L19.8025 16.0225C20.0404 17.6722 19.7818 18.9169 19.0599 19.745L19.0599 19.7451C18.1473 20.7938 16.6254 21.0213 15.4869 21.0213H6.37639C4.55127 21.0213 3.36476 20.6376 2.70977 19.881L2.70976 19.881C2.04615 19.1147 1.82961 17.83 2.10228 16.0111ZM15.052 10.6455C15.052 10.1364 14.611 9.7311 14.1083 9.7311C13.6018 9.7311 13.1898 10.1402 13.1898 10.6455C13.1898 11.1507 13.6018 11.5598 14.1083 11.5598H14.1586C14.6692 11.5598 15.052 11.1466 15.052 10.6455ZM8.68931 10.6455C8.68931 10.1364 8.2483 9.7311 7.7457 9.7311C7.23913 9.7311 6.82719 10.1402 6.82719 10.6455C6.82719 11.1507 7.23913 11.5598 7.7457 11.5598H7.79481C8.30524 11.5598 8.68931 11.1468 8.68931 10.6455ZM10.9058 1.97872H10.9222C12.7832 1.97872 14.3363 3.3183 14.6574 5.07917L7.16777 5.07887C7.30712 4.32709 7.67485 3.62166 8.22265 3.07907C8.92962 2.37991 9.9051 1.97872 10.9058 1.97872Z" fill="#B0B0B0" stroke="#B0B0B0" stroke-width="0.2"/>
</svg>
