<svg width="24" height="25" viewBox="0 0 24 25" fill="none" xmlns="http://www.w3.org/2000/svg">
<path fill-rule="evenodd" clip-rule="evenodd" d="M14.0926 1.89276L14.9423 2.74247C15.2713 3.06911 15.7106 3.25044 16.1779 3.25044H17.3729C19.3036 3.25044 20.874 4.82084 20.874 6.75158V7.94537C20.874 8.41149 21.0554 8.85204 21.3843 9.18332L22.2189 10.0191C22.8803 10.6758 23.2476 11.5535 23.2512 12.4892C23.2546 13.4249 22.8931 14.3048 22.234 14.9686L21.382 15.8183C21.0554 16.1472 20.874 16.5855 20.874 17.0528V18.2489C20.874 20.1784 19.3036 21.7488 17.374 21.7488H16.1756C15.7153 21.7488 15.2655 21.9348 14.9388 22.2591L14.1042 23.0937C13.4219 23.7807 12.5222 24.1248 11.6225 24.1248C10.7309 24.1248 9.83938 23.7877 9.15705 23.1112C9.14775 23.1019 9.13845 23.0926 9.12915 23.0821L8.30385 22.258C7.97489 21.9313 7.5355 21.75 7.06822 21.7488H5.8756C3.94486 21.7488 2.37562 20.1784 2.37562 18.2489V17.0504C2.37562 16.5831 2.19312 16.1449 1.86533 15.8148L1.02956 14.9802C-0.328119 13.6295 -0.344393 11.4302 0.988878 10.0586L1.02026 10.0272L1.86649 9.17867C2.19312 8.84971 2.37562 8.40916 2.37562 7.94304V6.75158C2.37562 4.822 3.94486 3.2516 5.87444 3.25044H7.07171C7.53783 3.25044 7.97721 3.06795 8.31082 2.73899L9.14194 1.90555C10.5008 0.537405 12.7221 0.530431 14.0926 1.89276ZM10.3776 3.13653L9.5418 3.97462C8.87459 4.6337 7.9993 4.99404 7.07171 4.99404H5.8756C4.90732 4.9952 4.11922 5.78331 4.11922 6.75158V7.94304C4.11922 8.87412 3.75771 9.74941 3.10212 10.4097L2.27681 11.2361C2.26868 11.2454 2.26054 11.2524 2.2524 11.2605C1.57008 11.9475 1.57356 13.0622 2.26054 13.7446L3.09979 14.5838C3.75771 15.2441 4.11922 16.1193 4.11922 17.0504V18.2489C4.11922 19.2171 4.90616 20.0052 5.8756 20.0052H7.06938C8.00163 20.0064 8.87691 20.3679 9.53599 21.0247L10.3741 21.8604L10.3973 21.886C11.0831 22.5555 12.1874 22.5474 12.8686 21.8628L13.7078 21.0258C14.3588 20.3761 15.2585 20.0052 16.1756 20.0052H17.3729C18.3423 20.0052 19.1304 19.2171 19.1304 18.2489V17.0528C19.1304 16.1217 19.4908 15.2464 20.1487 14.5873L20.9856 13.7492C21.3262 13.4075 21.5087 12.9646 21.5075 12.495C21.5064 12.0265 21.3215 11.586 20.9879 11.2536L20.1498 10.4143C19.4908 9.75057 19.1304 8.87645 19.1304 7.94537V6.75158C19.1304 5.78215 18.3423 4.99404 17.3729 4.99404H16.1779C15.2469 4.99404 14.3716 4.63253 13.7125 3.9781L12.8732 3.13769C12.1746 2.44606 11.0599 2.44955 10.3776 3.13653ZM14.5338 14.2417C15.1766 14.2417 15.6962 14.7613 15.6962 15.4041C15.6962 16.0469 15.1766 16.5665 14.5338 16.5665C13.891 16.5665 13.3656 16.0469 13.3656 15.4041C13.3656 14.7613 13.8806 14.2417 14.5234 14.2417H14.5338ZM15.2287 8.89621C15.5693 9.23679 15.5693 9.78893 15.2287 10.1295L9.25283 16.1042C9.08312 16.2751 8.85994 16.36 8.63676 16.36C8.41358 16.36 8.1904 16.2751 8.02069 16.1042C7.68011 15.7637 7.68011 15.2127 8.02069 14.8721L13.9954 8.89621C14.336 8.55563 14.8881 8.55563 15.2287 8.89621ZM8.72185 8.42974C9.36465 8.42974 9.88424 8.94933 9.88424 9.59214C9.88424 10.2349 9.36465 10.7545 8.72185 10.7545C8.07904 10.7545 7.55364 10.2349 7.55364 9.59214C7.55364 8.94933 8.06858 8.42974 8.71138 8.42974H8.72185Z" fill="#B0B0B0"/>
</svg>
