<svg width="26" height="25" viewBox="0 0 26 25" fill="none" xmlns="http://www.w3.org/2000/svg">
<g clip-path="url(#clip0_72_404)">
<path d="M8.52452 19.7333C8.826 20.4826 9.36399 21.0298 10.0394 21.2757L10.0404 21.276C10.7187 21.5229 11.4855 21.4506 12.1995 21.0697C12.581 20.8683 13.0538 21.0127 13.2557 21.3932M8.52452 19.7333L8.66373 19.6774C8.66371 19.6774 8.6637 19.6773 8.66369 19.6773M8.52452 19.7333L8.66369 19.6773M8.52452 19.7333C8.36347 19.3321 7.90841 19.1388 7.50788 19.3012C7.10806 19.4616 6.91436 19.9176 7.07613 20.3168M8.66369 19.6773C8.95141 20.3925 9.46043 20.9053 10.0907 21.1347L10.0917 21.1351C10.7251 21.3656 11.4476 21.3008 12.1289 20.9374L12.1294 20.9371C12.5837 20.6972 13.1474 20.8689 13.3882 21.3229M8.66369 19.6773C8.47165 19.1991 7.92896 18.9686 7.45152 19.1622C6.97503 19.3537 6.74437 19.897 6.93696 20.3728M13.3882 21.3229C13.3881 21.3228 13.3881 21.3228 13.3881 21.3227L13.2557 21.3932M13.3882 21.3229L13.2557 21.3932M13.3882 21.3229C13.6297 21.7768 13.4574 22.3414 13.0036 22.5822M13.2557 21.3932C13.4585 21.7741 13.3137 22.2479 12.9332 22.4497M12.9332 22.4497L13.0036 22.5822M12.9332 22.4497C11.8227 23.0399 10.6062 23.1447 9.50597 22.7443L9.50401 22.7436C8.40708 22.3432 7.54453 21.4817 7.07613 20.3168M12.9332 22.4497L13.0035 22.5823C13.0035 22.5822 13.0035 22.5822 13.0036 22.5822M13.0036 22.5822C11.8587 23.1906 10.5981 23.3014 9.45467 22.8852L9.45271 22.8845L9.45258 22.8845C8.31248 22.4684 7.41991 21.5738 6.93696 20.3728M6.93696 20.3728C6.93701 20.3729 6.93706 20.3731 6.93711 20.3732L7.07613 20.3168M6.93696 20.3728L7.07613 20.3168M16.6279 3.3257C13.2775 2.10626 10.0082 3.88791 9.16375 6.20811C8.78843 7.23929 8.36877 7.94676 7.93761 8.48033C7.50744 9.01267 7.06939 9.36711 6.66906 9.69102L6.66803 9.69185L16.6279 3.3257ZM16.6279 3.3257C19.9782 4.54514 21.3374 8.01139 20.4929 10.3316C20.1176 11.3628 19.9843 12.1745 19.9716 12.8604C19.959 13.5447 20.0667 14.0977 20.1652 14.6032L20.1654 14.6045C20.2447 15.0127 20.3122 15.3626 20.3142 15.7435C20.3161 16.1198 20.2538 16.5314 20.0657 17.0544C19.8622 17.4897 19.617 17.8375 19.2783 18.0877C18.939 18.3383 18.4934 18.5 17.874 18.5407C16.6254 18.6226 14.7028 18.2108 11.6187 17.0883C8.51687 15.9593 6.77621 15.0499 5.87252 14.1992C5.42441 13.7774 5.18847 13.3758 5.09025 12.9742C4.99218 12.5732 5.02758 12.1568 5.14954 11.6971M16.6279 3.3257L5.14954 11.6971M5.14954 11.6971C5.35209 11.1424 5.57434 10.7708 5.82022 10.4759C6.06877 10.1779 6.345 9.95354 6.66796 9.69191L5.14954 11.6971ZM21.7827 17.7718L21.7832 17.7721L21.7877 17.7599C22.366 16.1709 22.1662 15.1388 21.9928 14.2494C21.9061 13.8026 21.8254 13.384 21.8368 12.8769C21.848 12.3709 21.9514 11.7701 22.2431 10.9686C23.4245 7.72281 21.6903 3.18625 17.2649 1.57552C12.8394 -0.0352076 8.59494 2.32531 7.41357 5.5711C6.90144 6.97817 6.33975 7.54614 5.74278 8.04371C5.74259 8.04386 5.74241 8.04402 5.74223 8.04417L5.4965 8.2452C5.49637 8.2453 5.49625 8.2454 5.49612 8.2455C4.79059 8.81617 3.97497 9.47836 3.37712 11.1302L3.37661 11.1301L3.37331 11.1423C3.09575 12.1747 3.14351 13.076 3.45269 13.8724C3.76109 14.6667 4.3248 15.3443 5.05924 15.9394C6.52333 17.1256 8.69586 18.0065 10.9817 18.8385C13.2674 19.6704 15.498 20.3921 17.3855 20.4167C18.3325 20.429 19.2023 20.2662 19.9527 19.8471C20.7048 19.427 21.3254 18.7558 21.7827 17.7718Z" fill="#B0B0B0" stroke="#B0B0B0" stroke-width="0.3"/>
</g>
<defs>
<clipPath id="clip0_72_404">
<rect width="25" height="25" fill="white" transform="translate(0.626175)"/>
</clipPath>
</defs>
</svg>
