<svg width="21" height="27" viewBox="0 0 21 27" fill="none" xmlns="http://www.w3.org/2000/svg">
<path d="M3.8599 7.67693C3.84731 11.3783 6.84766 14.3989 10.5516 14.4103H10.5517H10.592C14.3035 14.4103 17.3215 11.3923 17.3215 7.68079C17.3215 3.96932 14.3035 0.95 10.592 0.95C6.8793 0.95 3.85995 3.96923 3.8599 7.67693ZM3.8599 7.67693C3.8599 7.67696 3.8599 7.67699 3.8599 7.67702H3.9099L3.8599 7.67685C3.8599 7.67688 3.8599 7.6769 3.8599 7.67693ZM10.5919 26.05H10.592C12.7306 26.05 15.2284 25.9304 17.1928 25.2895C18.1754 24.969 19.0283 24.5168 19.6361 23.8806C20.245 23.2432 20.6053 22.4233 20.6053 21.3738C20.6053 20.2409 20.1655 19.3785 19.4636 18.7245C18.7631 18.0719 17.803 17.6281 16.7623 17.3255C14.681 16.7204 12.2603 16.676 10.8981 16.6726H10.898L10.3284 16.673L10.3281 16.673C8.2057 16.6832 5.77304 16.8239 3.86967 17.4728C2.91762 17.7974 2.09433 18.2503 1.50869 18.881C0.921975 19.5128 0.57616 20.3206 0.57616 21.3486C0.57616 22.4815 1.01607 23.3438 1.71828 23.9978C2.419 24.6504 3.37933 25.0943 4.42038 25.3969C6.50225 26.002 8.92363 26.0464 10.2858 26.0497H10.2859L10.5919 26.05ZM5.75655 7.68095V7.68079C5.75655 5.01472 7.92588 2.84664 10.592 2.84664C13.2568 2.84664 15.4249 5.01469 15.4249 7.68079C15.4249 10.3456 13.2568 12.5149 10.592 12.5149L10.5557 12.5149C10.5556 12.5149 10.5555 12.5149 10.5554 12.5149C7.90077 12.5048 5.74786 10.3382 5.75655 7.68095ZM2.56339 21.3486C2.56339 20.4725 3.21553 19.7999 4.55837 19.3447C5.90001 18.8899 7.91305 18.6596 10.592 18.6596C13.2703 18.6596 15.2826 18.8921 16.6237 19.3511C17.9658 19.8105 18.6181 20.4892 18.6181 21.3738C18.6181 22.2499 17.9662 22.9225 16.6239 23.3777C15.2827 23.8325 13.2703 24.0628 10.592 24.0628C7.91307 24.0628 5.90008 23.8303 4.5585 23.3713C3.21591 22.9119 2.56339 22.2331 2.56339 21.3486Z" fill="#B0B0B0" stroke="#B0B0B0" stroke-width="0.1"/>
</svg>
